<svg width="138" height="44" viewBox="0 0 138 44" fill="none" xmlns="http://www.w3.org/2000/svg">
<g clip-path="url(#clip0_368_3381)">
<rect x="6.55884" y="19.6772" width="9.83856" height="10.9317" rx="2.73293" fill="#FFA561"/>
<rect x="6.55884" y="33.0684" width="9.83856" height="10.9317" rx="2.73293" fill="#00D764"/>
<rect width="16.3976" height="17.2175" rx="2.73293" fill="#3D6BF5"/>
<rect x="18.8579" y="6.28564" width="9.83856" height="10.9317" rx="2.73293" fill="#FFA561"/>
<rect x="18.8579" y="19.6772" width="9.83856" height="10.9317" rx="2.73293" fill="#3D6BF5"/>
<path d="M50.4618 15.4767V18.4414H42.8271V23.1377H48.6778V26.0499H42.8271V33.7896H39.154V15.4767H50.4618ZM54.9291 17.5231C54.282 17.5231 53.7398 17.322 53.3025 16.9197C52.8827 16.4999 52.6728 15.9839 52.6728 15.3718C52.6728 14.7596 52.8827 14.2524 53.3025 13.8501C53.7398 13.4303 54.282 13.2204 54.9291 13.2204C55.5763 13.2204 56.1098 13.4303 56.5296 13.8501C56.9668 14.2524 57.1855 14.7596 57.1855 15.3718C57.1855 15.9839 56.9668 16.4999 56.5296 16.9197C56.1098 17.322 55.5763 17.5231 54.9291 17.5231ZM56.7394 19.2547V33.7896H53.0664V19.2547H56.7394ZM64.0415 14.3748V33.7896H60.3684V14.3748H64.0415ZM81.1821 26.2073C81.1821 26.732 81.1471 27.2043 81.0772 27.6241H70.4515C70.539 28.6735 70.9063 29.4956 71.5534 30.0903C72.2006 30.6849 72.9964 30.9823 73.9409 30.9823C75.3052 30.9823 76.2759 30.3963 76.8531 29.2245H80.8148C80.395 30.6237 79.5904 31.7781 78.4011 32.6876C77.2117 33.5797 75.7512 34.0257 74.0196 34.0257C72.6204 34.0257 71.361 33.7196 70.2416 33.1074C69.1397 32.4777 68.2739 31.5945 67.6443 30.4576C67.0321 29.3207 66.726 28.0089 66.726 26.5221C66.726 25.0179 67.0321 23.6974 67.6443 22.5605C68.2564 21.4236 69.1135 20.549 70.2154 19.9369C71.3173 19.3247 72.5854 19.0186 74.0196 19.0186C75.4014 19.0186 76.6345 19.3159 77.7189 19.9106C78.8209 20.5053 79.6692 21.3536 80.2638 22.4555C80.876 23.54 81.1821 24.7906 81.1821 26.2073ZM77.3779 25.1579C77.3604 24.2134 77.0193 23.4613 76.3547 22.9015C75.69 22.3244 74.8767 22.0358 73.9147 22.0358C73.0052 22.0358 72.2356 22.3156 71.6059 22.8753C70.9937 23.4175 70.6177 24.1784 70.4778 25.1579H77.3779ZM87.5362 21.3799C88.0084 20.6802 88.6556 20.1118 89.4777 19.6745C90.3172 19.2372 91.2705 19.0186 92.3374 19.0186C93.5792 19.0186 94.6986 19.3247 95.6956 19.9369C96.7101 20.549 97.5059 21.4236 98.0831 22.5605C98.6778 23.6799 98.9751 24.9829 98.9751 26.4697C98.9751 27.9564 98.6778 29.2769 98.0831 30.4313C97.5059 31.5682 96.7101 32.4515 95.6956 33.0812C94.6986 33.7108 93.5792 34.0257 92.3374 34.0257C91.253 34.0257 90.2997 33.8158 89.4777 33.396C88.6731 32.9587 88.0259 32.399 87.5362 31.7169V33.7896H83.8631V14.3748H87.5362V21.3799ZM95.2234 26.4697C95.2234 25.5951 95.0397 24.843 94.6724 24.2134C94.3226 23.5662 93.8503 23.0765 93.2557 22.7441C92.6785 22.4118 92.0488 22.2456 91.3667 22.2456C90.702 22.2456 90.0723 22.4206 89.4777 22.7704C88.9005 23.1027 88.4282 23.5924 88.0609 24.2396C87.7111 24.8867 87.5362 25.6476 87.5362 26.5221C87.5362 27.3967 87.7111 28.1575 88.0609 28.8047C88.4282 29.4518 88.9005 29.9503 89.4777 30.3001C90.0723 30.6325 90.702 30.7986 91.3667 30.7986C92.0488 30.7986 92.6785 30.6237 93.2557 30.2739C93.8503 29.9241 94.3226 29.4256 94.6724 28.7784C95.0397 28.1313 95.2234 27.3617 95.2234 26.4697ZM108.098 34.0257C106.699 34.0257 105.44 33.7196 104.32 33.1074C103.201 32.4777 102.318 31.5945 101.67 30.4576C101.041 29.3207 100.726 28.0089 100.726 26.5221C100.726 25.0354 101.05 23.7236 101.697 22.5867C102.361 21.4498 103.262 20.5753 104.399 19.9631C105.536 19.3334 106.804 19.0186 108.203 19.0186C109.603 19.0186 110.871 19.3334 112.008 19.9631C113.144 20.5753 114.036 21.4498 114.684 22.5867C115.348 23.7236 115.681 25.0354 115.681 26.5221C115.681 28.0089 115.34 29.3207 114.657 30.4576C113.993 31.5945 113.083 32.4777 111.929 33.1074C110.792 33.7196 109.515 34.0257 108.098 34.0257ZM108.098 30.8249C108.763 30.8249 109.384 30.6674 109.961 30.3526C110.556 30.0203 111.028 29.5305 111.378 28.8834C111.728 28.2362 111.903 27.4491 111.903 26.5221C111.903 25.1404 111.535 24.0822 110.801 23.3476C110.084 22.5955 109.2 22.2194 108.151 22.2194C107.101 22.2194 106.218 22.5955 105.501 23.3476C104.801 24.0822 104.452 25.1404 104.452 26.5221C104.452 27.9039 104.793 28.9708 105.475 29.7229C106.174 30.4576 107.049 30.8249 108.098 30.8249ZM126.403 33.7896L123.412 29.2769L120.762 33.7896H116.827L121.576 26.4959L116.775 19.2547H120.92L123.885 23.7411L126.561 19.2547H130.496L125.721 26.4959L130.549 33.7896H126.403Z" fill="#3D6BF5"/>
</g>
<defs>
<clipPath id="clip0_368_3381">
<rect width="137.546" height="44" fill="white"/>
</clipPath>
</defs>
</svg>
